<svg width="260" height="229" viewBox="0 0 260 229" fill="none" xmlns="http://www.w3.org/2000/svg">
<path d="M95.8665 168.587C128.559 124.604 200.766 95.0399 258.269 96.6016C207.22 63.6391 152.918 49.358 95.2803 54.224L65.0775 109.871L95.8651 168.588L95.8665 168.587Z" fill="#ECECEC"/>
<path d="M95.2804 54.2223C86.6614 51.8211 64.1578 75.4322 64.1578 75.4322C64.1578 75.4322 33.1391 70.0495 27.9992 76.9275C22.8598 83.8046 38.5081 110.749 38.5081 110.749C38.5081 110.749 21.8953 139.237 26.1847 146.123C30.7324 153.423 64.7535 146.289 64.7535 146.289C64.7535 146.289 88.2159 172.395 95.8647 168.587C103.514 164.779 107.52 133.003 107.52 133.003C107.52 133.003 136.379 120.527 137.658 112.826C138.938 105.125 108.341 89.9478 108.341 89.9478C108.341 89.9478 103.898 56.624 95.279 54.2228L95.2804 54.2223Z" fill="#68548F"/>
<path d="M137.423 113.311C137.316 113.259 137.226 113.172 137.172 113.056C137.046 112.787 137.161 112.465 137.43 112.339C146.601 108.029 156.013 104.397 165.405 101.544C175.032 98.6189 184.928 96.4252 194.818 95.0227C204.937 93.5883 215.35 92.9384 225.769 93.0931C236.412 93.2516 247.376 94.2522 258.357 96.0694C258.65 96.1179 258.849 96.3952 258.8 96.6892C258.751 96.9833 258.474 97.1814 258.18 97.1325C215.445 90.062 176.097 95.3554 137.887 113.314C137.733 113.386 137.562 113.379 137.421 113.31L137.423 113.311Z" fill="#282828"/>
<path d="M108.106 90.432C107.976 90.368 107.871 90.2523 107.826 90.1018C107.741 89.8167 107.903 89.5169 108.189 89.4309C120.746 85.6792 133.326 82.9213 145.579 81.2332C158.163 79.4996 170.784 78.8432 183.09 79.2809C195.703 79.7294 208.365 81.3417 220.723 84.0726C233.367 86.8661 246.069 90.9135 258.478 96.1025C258.752 96.2172 258.882 96.5328 258.767 96.8076C258.652 97.0824 258.337 97.2115 258.062 97.0964C209.894 76.9553 160.971 74.7846 108.498 90.4627C108.363 90.5034 108.224 90.4873 108.107 90.43L108.106 90.432Z" fill="#282828"/>
<path d="M35.9176 142.531C35.1855 142.173 34.5983 141.728 34.1573 141.194C32.2553 138.893 32.866 134.603 35.9722 128.444C38.2266 123.973 41.04 120.081 41.0686 120.043C41.2439 119.802 41.5813 119.747 41.8215 119.924C42.0627 120.098 42.1158 120.436 41.9405 120.677C41.9124 120.714 39.1442 124.545 36.9292 128.941C34.0788 134.596 33.4072 138.596 34.988 140.508C35.3335 140.926 35.8048 141.28 36.3984 141.57C38.5607 142.627 42.3405 142.833 47.5114 142.156C52.6028 141.49 57.2489 140.184 57.2956 140.172C57.5822 140.091 57.8801 140.257 57.9608 140.544C58.0414 140.83 57.8753 141.128 57.5887 141.209C57.5416 141.222 52.8311 142.547 47.6621 143.224C42.2408 143.935 38.3065 143.701 35.9167 142.533L35.9176 142.531Z" fill="#282828"/>
<path d="M124.297 109.317C124.265 109.301 124.234 109.282 124.204 109.259C116.403 103.235 108.914 98.4633 101.309 94.6715C101.136 94.5857 101.023 94.4142 101.011 94.2224C100.45 85.0488 98.4181 75.8546 94.9731 66.8932C94.8665 66.6156 95.0045 66.3039 95.2827 66.1963C95.5604 66.0897 95.8721 66.2277 95.9796 66.5059C99.4251 75.4687 101.473 84.6661 102.068 93.8452C109.641 97.6465 117.101 102.411 124.863 108.405C125.098 108.587 125.142 108.926 124.96 109.161C124.801 109.367 124.523 109.426 124.298 109.316L124.297 109.317Z" fill="#FCFCFC"/>
<path d="M101.854 158.741C101.614 158.623 101.493 158.343 101.581 158.084C105.104 147.661 106.968 133.081 106.987 132.936C107.011 132.747 107.133 132.583 107.307 132.508C107.379 132.477 114.589 129.35 121.857 125.327C133.854 118.687 136.783 114.816 137.129 112.737C137.606 109.861 132.66 104.967 123.199 98.958C115.819 94.27 108.18 90.4678 108.104 90.4304C107.943 90.3518 107.833 90.1961 107.809 90.0189C107.776 89.77 104.421 65.0722 98.0936 57.0293C97.9093 56.7952 97.9502 56.4564 98.1843 56.2721C98.4183 56.0878 98.7571 56.1287 98.9414 56.3628C101.684 59.8488 104.191 66.5566 106.392 76.298C107.827 82.6509 108.655 88.2871 108.84 89.5928C110.235 90.2967 117.107 93.8102 123.772 98.0442C128.148 100.823 131.585 103.369 133.988 105.608C137.145 108.551 138.521 110.94 138.193 112.915C137.634 116.279 132.311 120.774 122.373 126.274C115.874 129.871 109.423 132.755 108.017 133.375C107.728 135.537 105.877 148.743 102.604 158.43C102.508 158.711 102.202 158.863 101.92 158.767C101.898 158.76 101.877 158.751 101.856 158.74L101.854 158.741Z" fill="#282828"/>
</svg>
